<svg width="160" height="57" viewBox="0 0 160 57" fill="none" xmlns="http://www.w3.org/2000/svg">
<path d="M93.3227 55.832H87.0987V34.328C87.0987 32.2267 85.1201 28.0133 80.4054 28.0133C76.8641 28.0133 74.1387 31.2613 74.1387 34.6267C74.1387 37.592 76.8427 41.2933 81.6694 41.2933C83.3334 41.2933 84.5494 40.5733 84.5494 40.5733V46.5893C84.5494 46.5893 83.0667 47.2667 80.8801 47.2667C76.3947 47.2667 74.1174 45.912 71.4081 43.432C69.1521 41.3627 67.8027 36.9893 67.8027 34.552C67.8027 32.12 69.0667 27.928 71.1414 25.896C73.2161 23.8693 76.1014 21.704 80.6987 21.704C85.2961 21.704 88.2721 24.3173 90.2134 26.2587C93.2801 29.32 93.3227 35.9547 93.3227 35.9547V55.832ZM114.016 29.3627V13.8213H120.24V16.4347C120.24 16.4347 122.624 14.584 125.963 13.4587C129.296 12.3333 133.536 11.88 133.536 11.88V15.3093C133.536 15.3093 135.296 14.9893 136.96 14.856C138.629 14.7227 140.747 14.7653 140.747 14.7653V19.1867C140.747 19.1867 139.669 19.1867 138.539 19.2293C137.419 19.272 135.744 19.544 135.744 19.544L140.795 20.984L140.843 25.768L143.813 21.8907L148.635 23.512L145.797 19.4053L160 1.96533V8.77067L151.211 19.7253L159.008 31.0853L145.344 26.936L136.379 37.9867L136.325 24.1413L133.536 23.24V25.8533C133.536 25.8533 127.984 26.168 124.427 30.0027C119.92 34.872 120.283 40.056 120.283 40.056V55.8427H114.016V40.1413C114.016 37.6613 114.304 32.4347 119.424 26.888C123.387 22.5947 129.392 20.7973 129.392 20.7973L137.499 23.3253L137.456 34.9573L144.987 25.5813L156.528 29.32L149.899 19.6293L158.965 8.45067V4.97333L147.2 19.496L151.072 25.2613L144.219 23.192L139.579 28.8667L139.531 21.704C139.531 21.704 133.808 19.8107 131.328 19.3147C132.891 18.8517 134.489 18.5199 136.107 18.3227C138.043 18.1413 139.531 18.1413 139.531 18.1413V15.7947C139.531 15.7947 134.347 15.768 128.757 17.6933C124.188 19.3211 120.044 21.9549 116.629 25.4C114.869 27.2027 114.016 29.3627 114.016 29.3627ZM104.816 13.816H110.949V55.8427H104.816V13.816Z" fill="white"/>
<path d="M96.3892 55.832H102.565V33.6987C102.565 28.5093 100.443 23.3253 95.5306 18.4133C90.6185 13.496 83.7225 12.4187 80.3412 12.4187C76.9545 12.4187 71.2319 13.7733 67.8932 16.3813C64.5599 19 58.4265 24.0453 58.4265 34.9093C58.4265 44.0667 64.5759 50.8507 69.3812 53.624C73.1572 55.8 76.5972 56.5573 80.9705 56.5573C84.0372 56.5573 84.5332 56.0987 84.5332 56.0987V49.7893C84.5332 49.7893 83.2212 50.2853 80.9226 50.2853C78.6292 50.2853 75.4719 50.104 71.9092 47.7627C69.7182 46.3103 67.9263 44.3319 66.6974 42.0082C65.4684 39.6845 64.8417 37.0898 64.8745 34.4613C64.8745 28.0133 68.4799 23.64 71.9039 21.2987C75.3332 18.952 79.0292 18.6853 80.7412 18.6853C82.4585 18.6853 87.4612 19.2667 91.3812 23.192C95.3065 27.112 96.3892 31.304 96.3892 37.8V55.832ZM42.9492 37.8C42.9492 42.3973 43.2372 43.8427 44.4052 45.0107C45.7172 46.3227 46.4319 47.0907 51.0346 47.0907H58.4265V41.224C58.4265 41.224 55.4932 41.1813 52.3892 41.1813C49.3652 41.1813 49.2746 40.3227 49.2746 38.1573V28.2427H58.4265V22.52H42.9492V37.8Z" fill="white"/>
<path d="M33.6321 22.5147H39.8988V39.5547C39.8988 44.0667 41.1628 45.912 42.2881 47.128C43.4134 48.3493 45.4401 50.104 50.6294 50.104H58.4268V55.9174C58.4268 55.9174 51.8934 55.832 47.7014 55.832C44.9921 55.832 40.2614 54.2533 37.1468 50.552C34.9287 47.8385 33.6905 44.4563 33.6321 40.952V22.5147ZM42.9708 0.472008H49.2694V13.8587H58.4694V19.496H42.9708V0.472008ZM33.6321 0.466675H39.9894V19.5387H33.6321V0.466675ZM30.6134 28.2427V22.4667H12.3094C9.51477 22.4667 8.90144 23.7413 8.69877 24.408C7.97877 26.7973 12.0374 29.5013 15.3281 31.9813C18.6188 34.4613 21.9308 36.9627 23.4454 38.4773C25.0668 40.0987 27.2801 42.8667 25.9681 46.136C24.5281 49.7467 21.0561 49.9707 18.2134 49.9707H0.773438V55.832H17.8081C23.7601 55.832 27.4561 54.6107 30.3894 50.0613C32.9868 46.024 32.0641 41.1547 30.7468 38.8773C28.9014 35.6773 26.1494 33.24 23.0401 31.1707C20.6028 29.544 20.0001 29.3627 20.1974 28.648C20.3308 28.152 22.1281 28.232 22.1281 28.232L30.6134 28.2427Z" fill="white"/>
<path d="M30.704 19.4693V13.736L12.0373 13.7307C6.75733 13.7307 0 17.4267 0 25.4107C0 33.3894 7.89333 37.0747 11.36 39.8374C11.8613 40.232 12.2133 41.2347 10.7307 41.2347H0.757333V47H15.7333C21.328 47 22.1867 46.6854 22.9867 44.9734C23.5573 43.784 23.3973 42.5414 20.5547 39.9707C17.7173 37.4 11.7707 33.0267 10.1013 31.8107C8.432 30.5947 5.14133 27.6187 5.68 24.504C6.224 21.3947 8.112 19.5013 12.2187 19.5013C16.4747 19.5013 30.704 19.4747 30.704 19.4747" fill="white"/>
</svg>
