<svg width="70" height="57" viewBox="0 0 70 57" fill="none" xmlns="http://www.w3.org/2000/svg">
<path fill-rule="evenodd" clip-rule="evenodd" d="M51.7938 2.71768C48.5475 4.75891 47.5886 5.29513 46.8255 5.49624L45.8799 5.74556L40.7897 5.12594C35.08 4.43102 34.2524 4.42237 31.8589 5.03248C31.1034 5.22507 29.9927 5.62813 29.3908 5.92808C28.7889 6.22803 25.4504 8.31351 21.9718 10.5624C15.4775 14.7611 15.1352 15.0266 14.885 16.0609C14.8327 16.2776 14.5568 16.6052 14.2425 16.8241C13.9395 17.035 13.4993 17.4996 13.2642 17.8562C12.4967 19.0205 12.4194 19.5448 12.4194 23.5783V27.2398H6.20968H0V28.3744V29.509H18.1468C28.1276 29.509 36.2692 29.5568 36.2393 29.6153C35.2089 31.6313 34.6016 33.2885 34.1992 35.1818C33.8453 36.847 33.8508 40.445 34.2098 42.1254C35.8159 49.6431 41.5808 55.2661 48.9613 56.5137C58.937 58.2001 68.3048 51.2828 69.7978 41.128C70.3664 37.2611 69.6829 33.6285 67.6317 29.6153C67.6018 29.5568 68.1224 29.509 68.7887 29.509H70V28.3744V27.2398H68.0288H66.0578L64.8592 25.9904C61.2511 22.2292 56.2231 20.2103 51.1593 20.4896C50.2278 20.5409 49.2594 20.6202 49.0071 20.6656C48.5745 20.7436 48.5484 20.7244 48.5484 20.3292C48.5484 19.9586 48.6178 19.8894 49.1482 19.7318C50.1941 19.421 51.8292 18.479 52.9234 17.557C53.5055 17.0664 55.8553 15.4929 58.1452 14.0603C60.435 12.6276 62.3864 11.3842 62.4816 11.2973C62.6163 11.1748 62.5274 10.929 62.0845 10.1982L61.5139 9.25691L59.8648 10.2887C58.9578 10.8562 56.9773 12.0948 55.4637 13.041C53.9501 13.9872 52.3685 15.0609 51.9489 15.427C50.6964 16.5197 49.4554 17.259 48.1538 17.6878C47.0279 18.0586 46.7606 18.0912 44.9496 18.0795C43.2929 18.0685 42.6204 17.9918 40.7863 17.6038C38.9345 17.2121 38.1655 17.1254 35.7762 17.0389C34.2238 16.9826 32.786 16.8659 32.5812 16.7794C31.8698 16.4792 30.7661 15.2985 30.7661 14.8376C30.7661 14.7946 32.4808 14.7596 34.5766 14.7596H38.3871V13.625V12.4904H33.7243H29.0614L24.1122 15.2496C18.8992 18.1558 18.2566 18.4235 17.509 18.0019C17.0076 17.7191 16.8158 17.1117 17.0813 16.6472C17.278 16.3032 28.7439 8.77358 30.2016 8.03129C31.5627 7.33821 33.6566 6.82113 35.1318 6.81361C35.5638 6.81149 38.1218 7.0801 40.8161 7.41068C47.6016 8.24331 47.0708 8.36429 53.0786 4.61595C55.0502 3.38579 56.7418 2.30767 56.8377 2.21988C56.9738 2.09551 56.8929 1.8659 56.4688 1.17296C56.1701 0.684667 55.9011 0.263458 55.8711 0.236796C55.8411 0.210134 54.0063 1.32655 51.7938 2.71768ZM13.0544 2.44878C12.6759 2.66449 12.6131 2.77299 12.2686 3.80488C11.9134 4.86868 11.3401 5.4968 10.6145 5.61749C9.7331 5.76385 9.34613 5.9729 9.17141 6.39709C8.82875 7.22816 9.32425 7.84352 10.4818 8.02463C11.3091 8.15411 11.8718 8.75486 12.2683 9.93212C12.6284 11.0009 12.9476 11.3559 13.5484 11.3559C14.1444 11.3559 14.4951 10.9851 14.816 10.0164C14.9825 9.51346 15.2524 8.93129 15.4157 8.72267C15.7493 8.29664 16.461 7.95216 17.0079 7.95216C17.5143 7.95216 18.0645 7.36133 18.0645 6.81758C18.0645 6.23427 17.5157 5.68302 16.9349 5.68302C15.9493 5.68302 15.2854 5.03631 14.816 3.61881C14.4118 2.39829 13.8258 2.00914 13.0544 2.44878ZM13.8256 6.59875C13.9602 6.76171 13.9536 6.86666 13.7942 7.09527C13.593 7.38402 13.5913 7.38402 13.3391 7.10392C13.1321 6.87389 13.1184 6.78383 13.2639 6.60755C13.4861 6.33837 13.6089 6.33639 13.8256 6.59875ZM5.12002 13.7962C4.93867 13.8843 4.70778 14.2236 4.57173 14.6022C3.90561 16.4559 3.5995 16.8027 2.4356 17.0211C1.75748 17.1484 1.12903 17.6709 1.12903 18.1073C1.12903 18.5546 1.5623 19.1529 1.94306 19.2313C3.49788 19.5516 3.88034 19.8758 4.36413 21.2834C4.71653 22.3084 5.06724 22.7016 5.62935 22.7016C6.24129 22.7016 6.58946 22.3381 6.91278 21.3621C7.07931 20.8592 7.34915 20.277 7.51244 20.0684C7.84607 19.6423 8.55778 19.2979 9.10466 19.2979C9.61103 19.2979 10.1613 18.707 10.1613 18.1633C10.1613 17.58 9.61244 17.0287 9.03169 17.0287C8.04605 17.0287 7.38218 16.382 6.91278 14.9645C6.5052 13.7336 5.96919 13.3843 5.12002 13.7962ZM28.6169 15.7258C28.6527 15.8339 28.5043 15.8926 28.2022 15.8896C27.7561 15.8854 27.7461 15.8743 28.0085 15.675C28.3106 15.4454 28.5299 15.4637 28.6169 15.7258ZM5.92234 17.9445C6.05698 18.1074 6.05034 18.2124 5.89101 18.441C5.68976 18.7297 5.68806 18.7297 5.43587 18.4496C5.22883 18.2196 5.21514 18.1295 5.36065 17.9532C5.58292 17.6841 5.70571 17.6821 5.92234 17.9445ZM31.429 18.6873L32.4841 19.2113L35.4708 19.3146C38.0228 19.4029 38.7556 19.4819 40.504 19.8572C41.8834 20.1532 43.1599 20.3256 44.4204 20.3862L46.2903 20.4761V20.9353C46.2903 21.3181 46.2258 21.4106 45.9022 21.4913C45.1071 21.6895 42.6515 22.9853 41.4784 23.8258C40.8111 24.3039 39.7076 25.2675 39.0261 25.9674L37.787 27.2398H26.2322H14.6774V23.6163C14.6774 20.5501 14.7127 19.9231 14.907 19.5389C15.2202 18.92 15.2202 18.92 15.4634 19.2688C15.8393 19.8083 16.8707 20.3116 17.7673 20.3933C18.8962 20.4961 20.134 20.0963 22.0161 19.0206L23.498 18.1738L26.936 18.1685L30.3739 18.1633L31.429 18.6873ZM35 21.567V22.7016H36.129H37.2581V21.567V20.4324H36.129H35V21.567ZM54.4085 22.9102C60.9931 23.9835 66.0574 28.9288 67.4838 35.6782C67.716 36.7766 67.716 40.3945 67.4838 41.4929C66.1013 48.0351 61.3389 52.8208 54.8286 54.2101C53.7356 54.4434 50.1354 54.4434 49.0423 54.2101C44.1371 53.1633 40.2017 50.2362 37.995 45.9927C35.5515 41.2943 35.5154 36.1103 37.8927 31.3535C40.9194 25.2976 47.7212 21.8203 54.4085 22.9102ZM20.3226 24.9707V26.1053H21.4516H22.5806V24.9707V23.8361H21.4516H20.3226V24.9707Z" fill="white"/>
<path fill-rule="evenodd" clip-rule="evenodd" d="M41.0662 30.9993C41.669 29.7763 42.8226 28.8283 44.1039 28.5029C44.3368 28.4438 46.4643 28.4069 48.8317 28.421C52.9904 28.4456 53.1577 28.4573 53.7756 28.7666C54.7812 29.27 55.3753 29.8424 55.8982 30.8113L56.3821 31.7084L56.4288 34.8371L56.4755 37.9658L56.9798 37.5015C57.8621 36.6894 58.636 36.3973 59.9103 36.3949C61.2234 36.3923 62.0002 36.6825 62.9225 37.5198C64.1652 38.6481 64.5318 40.1535 64.2211 42.8541C63.8257 46.2907 63.2657 47.4717 61.6166 48.346L60.8982 48.7269H52.4305H43.9628L43.0701 48.2406C42.1059 47.7152 41.5363 47.1181 41.0353 46.1076C40.7179 45.4672 40.7168 45.4418 40.7168 38.5867V31.7084L41.0662 30.9993ZM61.884 43.338C62.304 40.5308 62.0669 39.4392 60.9158 38.8791C60.2698 38.5649 59.6949 38.5216 59.1371 38.7452C58.5864 38.9661 58.2885 39.3026 57.8336 40.2179C57.095 41.7043 56.7611 41.9572 54.1749 42.9897C53.3707 43.3106 52.5708 43.7062 52.3974 43.8684C51.6933 44.527 51.9035 45.859 52.7839 46.3165C53.1552 46.5095 53.7499 46.5362 56.873 46.5002L60.5274 46.4581L60.9565 46.0446C61.4806 45.5399 61.6121 45.1561 61.884 43.338ZM53.1525 31.0072C53.3667 31.168 53.6728 31.4756 53.8329 31.6909C54.1092 32.0625 54.126 32.2958 54.1651 36.3085L54.2062 40.5348L53.0361 41.0043C51.4694 41.6332 50.9084 42.0036 50.4009 42.7448C49.7095 43.7547 49.4977 45.2485 49.8983 46.288C49.9921 46.5314 49.8498 46.5425 47.1662 46.5008C44.0652 46.4527 43.9697 46.4277 43.2657 45.4806C42.9839 45.1016 42.9734 44.8949 42.9326 38.9657C42.9096 35.5977 42.928 32.6366 42.9736 32.3853C43.0767 31.8174 43.6691 31.0933 44.2378 30.8401C44.5728 30.691 45.5651 30.6559 48.7157 30.6816C52.5558 30.7131 52.783 30.7298 53.1525 31.0072Z" fill="#DB3138"/>
</svg>
