<svg width="70" height="46" viewBox="0 0 70 46" fill="none" xmlns="http://www.w3.org/2000/svg">
<path fill-rule="evenodd" clip-rule="evenodd" d="M15.0028 0.488695C14.8122 0.679292 14.6562 0.926926 14.6562 1.03917C14.6562 1.20647 14.2321 1.25348 12.2914 1.30134C9.63559 1.36685 9.03316 1.52103 7.7498 2.46314C6.34136 3.49703 6.20978 3.80269 2.93122 13.6488C0.109959 22.1215 -0.0576255 22.6837 0.0111307 23.4417C0.150902 24.9835 1.02398 26.2607 2.3607 26.8789C2.96002 27.1562 3.28714 27.1819 6.72622 27.2226C10.6714 27.2692 10.9883 27.2237 11.1804 26.5824C11.2218 26.4444 11.6724 23.1976 12.1821 19.3673C12.6916 15.537 13.1933 12.2005 13.2966 11.9529C13.4001 11.7054 13.7324 11.2853 14.0351 11.0191L14.5856 10.5353L14.682 13.1391C14.8458 17.559 15.3144 23.2148 15.7259 25.7416C15.8133 26.2776 15.8173 26.2805 16.3645 26.2004C18.2058 25.9307 18.0677 25.984 17.9843 25.5765C17.6733 24.0575 17.1438 17.8517 16.9737 13.731L16.879 11.4367H18.6395H20.4L20.5606 11.9725C20.7926 12.7472 21.6052 13.621 22.501 14.0592C23.3738 14.4863 23.6919 14.848 23.6919 15.4134C23.6919 15.9375 23.1941 16.4311 22.3611 16.7331C21.5447 17.029 20.6194 17.9029 20.2699 18.7077C19.9847 19.3645 15.9624 37.3759 15.8334 38.5734C15.5145 41.5361 17.7348 44.544 20.6987 45.1641C21.7522 45.3845 43.7176 45.3824 44.7566 45.1619C47.7432 44.5277 49.9424 41.5496 49.6219 38.5734C49.4458 36.9394 45.436 19.2958 45.0675 18.534C44.6531 17.6776 43.9387 17.0365 43.0357 16.7108C41.9106 16.3049 41.4578 15.4654 41.9696 14.7346C42.0831 14.5726 42.5262 14.2687 42.9542 14.0592C44.2351 13.4326 45.1518 12.067 45.1518 10.7857C45.1518 10.4422 45.227 10.3025 45.4497 10.2317C45.6136 10.1798 46.9516 9.41302 48.423 8.52809L51.0984 6.91888H60.2027H69.3069L69.6534 6.57228C69.9972 6.22864 70 6.20393 70 3.53049C70 0.857041 69.9972 0.832335 69.6534 0.488695L69.3069 0.14209H57.0111H44.7154L44.3689 0.488695C44.1783 0.679292 44.0223 0.933422 44.0223 1.05343C44.0223 1.2484 42.8208 1.27156 32.7276 1.27156C22.6345 1.27156 21.433 1.2484 21.433 1.05343C21.433 0.933422 21.277 0.679292 21.0864 0.488695C20.7427 0.144914 20.718 0.14209 18.0446 0.14209C15.3712 0.14209 15.3464 0.144914 15.0028 0.488695ZM19.1741 5.78942V9.17781H18.0446H16.9151V5.78942V2.40102H18.0446H19.1741V5.78942ZM60.9643 3.53049V4.65995H55.7257H50.4871L48.3841 5.92566L46.2812 7.19136V4.79619V2.40102H53.6228H60.9643V3.53049ZM67.7411 3.53049V4.65995H65.4821H63.2232V3.53049V2.40102H65.4821H67.7411V3.53049ZM14.6562 5.83403V8.13757L13.8444 8.47331C12.8732 8.87497 11.7436 9.95008 11.3049 10.8902C11.0415 11.455 10.9271 11.5575 10.4633 11.6443C9.01424 11.9155 7.16008 13.3069 6.40913 14.6866C6.14017 15.1809 5.63177 16.9261 4.83974 20.0742C4.19538 22.6354 3.63121 24.7678 3.58603 24.8129C3.54085 24.858 3.34475 24.8225 3.15006 24.7338C2.71874 24.5373 2.23335 23.7766 2.23265 23.2961C2.23194 22.8278 7.94492 5.70372 8.29152 5.13517C8.62754 4.58414 9.40687 3.9803 10.1028 3.73195C10.4471 3.60898 11.3364 3.54065 12.6443 3.5367L14.6562 3.53049V5.83403ZM22.5625 4.65995V5.78942H23.6919H24.8214V4.65995V3.53049H25.9509H27.0803V4.65995V5.78942H28.2098H29.3392V4.65995V3.53049H30.4687H31.5982V4.65995V5.78942H32.7276H33.8571V4.65995V3.53049H34.9866H36.116V4.65995V5.78942H37.2455H38.375V4.65995V3.53049H39.5044H40.6339V4.65995V5.78942H41.7634H42.8928V4.65995V3.53049H43.4576H44.0223V5.78942V8.04835H32.7276H21.433V5.78942V3.53049H21.9977H22.5625V4.65995ZM42.8928 10.7118C42.8928 11.2821 42.449 11.7793 41.4775 12.2971C39.8365 13.1717 39.1292 14.8556 39.7107 16.5038C40.0569 17.4847 40.5887 18.04 41.69 18.5696C42.8513 19.1283 43.1354 19.3909 43.2617 20.0229L43.3517 20.4725H32.7276H22.1036L22.1935 20.0229C22.3199 19.3909 22.604 19.1283 23.7653 18.5696C24.8666 18.04 25.3984 17.4847 25.7446 16.5038C26.3261 14.8556 25.6188 13.1717 23.9778 12.2971C23.0063 11.7793 22.5625 11.2821 22.5625 10.7118V10.3073H32.7276H42.8928V10.7118ZM10.5606 14.2251C10.5601 14.3611 10.243 16.8229 9.85597 19.696C9.46899 22.569 9.15189 24.9357 9.15133 24.955C9.15062 24.9744 8.42607 24.9903 7.54128 24.9903H5.93249L7.02779 20.6406C7.63022 18.2481 8.20568 16.1357 8.30649 15.9463C8.67018 15.2635 9.08539 14.801 9.70109 14.3933C10.4272 13.9122 10.5623 13.8858 10.5606 14.2251ZM43.9294 23.0491C43.9727 23.2238 44.7792 26.8292 45.7216 31.0612C47.579 39.4029 47.6027 39.586 46.9836 40.8201C46.5629 41.6593 46.062 42.1699 45.2224 42.6161L44.5164 42.9912H32.7276H20.9389L20.3577 42.6803C19.4477 42.1935 18.9078 41.6724 18.5195 40.9062C17.8461 39.5771 17.8567 39.491 19.7337 31.0612C20.6761 26.8292 21.4825 23.2238 21.5259 23.0491L21.6048 22.7314H32.7276H43.8505L43.9294 23.0491Z" fill="white"/>
<path fill-rule="evenodd" clip-rule="evenodd" d="M36.0403 26.0424C36.4313 25.6508 36.9734 25.2601 37.2452 25.1744C38.5592 24.7603 39.7155 25.0506 40.709 26.044C41.4402 26.7752 41.7631 27.4903 41.7631 28.3783C41.7631 30.61 39.2713 32.3811 37.2941 31.5549C37.0152 31.4384 36.766 31.3431 36.74 31.3431C36.7142 31.3431 36.79 31.6132 36.9086 31.9432C37.2154 32.7971 37.3099 34.3775 37.1112 35.3334C36.8448 36.6151 36.0923 37.9648 35.1347 38.8781C32.4416 41.4468 28.3649 41.4098 25.7515 38.793C22.8458 35.8836 23.115 31.2695 26.3385 28.7318C28.6868 26.8832 32.1668 26.826 34.49 28.5981L34.9863 28.9765V28.4468C34.9863 27.4907 35.2926 26.7917 36.0403 26.0424ZM34.5636 32.1197C34.1172 31.2116 33.2668 30.366 32.3744 29.9426C31.4528 29.5052 29.9483 29.4109 29.0573 29.7346C25.1981 31.137 24.8924 36.3162 28.5625 38.1208C29.1475 38.4085 29.4738 38.4673 30.4684 38.4637C31.4854 38.4601 31.7785 38.4023 32.3895 38.0856C33.4529 37.5346 33.8964 37.1064 34.4296 36.1153C34.866 35.3045 34.9084 35.1195 34.9095 34.0256C34.9105 33.0349 34.8502 32.7025 34.5636 32.1197ZM39.1575 27.5958C39.3761 27.8142 39.5042 28.1036 39.5042 28.3786C39.5042 28.6537 39.3761 28.9431 39.1575 29.1615C38.9391 29.38 38.6497 29.5081 38.3747 29.5081C38.0997 29.5081 37.8102 29.38 37.5918 29.1615C37.3733 28.9431 37.2452 28.6537 37.2452 28.3786C37.2452 28.1036 37.3733 27.8142 37.5918 27.5958C37.8102 27.3772 38.0997 27.2492 38.3747 27.2492C38.6497 27.2492 38.9391 27.3772 39.1575 27.5958Z" fill="#DB3138"/>
</svg>
