<svg width="70" height="71" viewBox="0 0 70 71" fill="none" xmlns="http://www.w3.org/2000/svg">
<path fill-rule="evenodd" clip-rule="evenodd" d="M45.3829 0.728972C41.1862 1.32835 37.2548 4.04 35.1009 7.82113C34.7801 8.38423 33.8845 10.5404 33.1106 12.6126L31.7037 16.3802H31.1018H30.4998V15.5976C30.4998 14.9548 30.4379 14.753 30.1535 14.4686C29.8248 14.1396 29.7229 14.1223 28.1432 14.1237C26.3039 14.1254 23.1997 14.4279 21.702 14.7516C19.9846 15.1227 18.9214 15.9917 18.3648 17.4793C17.6165 19.4784 18.5228 21.7393 20.4521 22.6871C21.2436 23.076 21.3197 23.0852 24.3056 23.1544L27.3516 23.2249L25.6677 25.2713C23.7705 27.5768 22.8466 28.8822 22.1881 30.1875C21.8264 30.9046 21.6898 31.0604 21.4984 30.9749C21.3671 30.9163 20.72 30.6756 20.0605 30.4399C18.9642 30.0482 18.7041 30.0108 17.0274 30.0053C14.9407 29.9983 13.8582 30.2543 12.0899 31.1733C10.7194 31.8855 8.72997 33.8734 8.03928 35.2209C6.66636 37.8991 6.45603 40.5759 7.39373 43.4335L7.69012 44.3369L5.8521 46.2003C4.84103 47.2252 3.9053 48.2772 3.77269 48.5383C3.40111 49.269 3.33805 50.3732 3.61963 51.2211L3.86072 51.9474L3.30095 52.8342C1.96401 54.9519 0.977348 57.3569 0.435066 59.8198C0.170979 61.0192 0.125413 61.7695 0.0667271 65.8812L0 70.5737H1.12829H2.25673L2.32684 65.9518C2.40133 61.0314 2.45296 60.5869 3.22364 58.2249C3.63613 56.9606 4.62336 54.8991 5.25889 53.9751C5.63879 53.4227 5.71159 53.3784 6.03648 53.5019C6.56987 53.7049 7.3682 53.6675 8.15002 53.4031C8.71769 53.2112 9.20115 52.8183 10.786 51.2605L12.7268 49.3529L13.6074 49.6552C14.7168 50.0361 15.9307 50.2511 16.9704 50.2511C17.7411 50.2511 19.5715 49.9597 20.0957 49.7535C20.3233 49.6641 20.3427 49.8038 20.345 51.5415C20.3478 53.6368 20.5656 54.9396 21.1137 56.1371L21.4712 56.9184V62.2831C21.4712 66.0826 21.5213 67.8173 21.6427 68.2287C21.8717 69.004 23.0403 70.1731 23.8152 70.4021C24.2232 70.5226 25.8829 70.5737 29.3977 70.5737C35.2058 70.5737 35.3311 70.5534 36.3259 69.4464C37.1604 68.518 37.2713 68.0398 37.2713 65.3709C37.2713 63.1942 37.2835 63.0939 37.5511 63.0939C37.7051 63.0939 38.8635 63.1875 40.1257 63.3018C44.492 63.6972 48.3918 63.7991 59.1727 63.7993L70 63.7995V62.6832V61.5669L57.3388 61.5021C42.7674 61.4274 40.9669 61.3303 33.0391 60.1921C27.4862 59.3948 26.2751 58.9961 24.706 57.4487C23.7063 56.4631 23.1725 55.5278 22.8156 54.1378C22.5649 53.1611 22.5007 48.4165 22.7381 48.4165C23.0186 48.4165 24.8465 46.5469 25.4058 45.688C26.3932 44.172 27.1141 41.9467 27.1141 40.415C27.1141 39.9709 27.1478 39.9264 27.4315 39.9957C28.0299 40.1421 33.5323 40.7873 35.3991 40.93C36.4255 41.0086 38.5948 41.1154 40.2198 41.1678L43.1741 41.2628L43.6242 40.8126C44.0543 40.3823 44.0698 40.3282 43.9767 39.5835C43.6335 36.8354 42.2876 34.1252 40.1734 31.9243C38.9121 30.6112 37.7939 29.8092 36.1156 29.0139C34.0358 28.0283 32.8879 27.7972 29.5415 27.691L26.6789 27.5999L29.4477 24.214L32.2165 20.8281L33.767 20.5802C37.8584 19.9258 44.099 19.257 49.3329 18.9119C50.652 18.8248 55.8416 18.7205 60.8656 18.6799L70 18.6059V17.4759V16.346L60.7245 16.4204C51.5047 16.4942 48.3766 16.6242 42.9141 17.1602C40.2776 17.419 36.5361 17.8762 34.8117 18.1504C34.1183 18.2606 33.5202 18.3199 33.4825 18.282C33.3961 18.1957 36.0125 11.1646 36.6501 9.7697C37.9045 7.0253 40.3028 4.77909 43.1963 3.63849C45.2133 2.84351 45.4306 2.83179 58.236 2.83179H70V1.70276V0.57373L58.1147 0.590948C51.5778 0.600404 45.8484 0.662501 45.3829 0.728972ZM28.2426 17.1627C28.2426 17.8056 28.3046 18.0074 28.589 18.2918C28.8861 18.5891 29.0662 18.6382 29.8586 18.6382C30.5449 18.6382 30.7819 18.6878 30.7819 18.831C30.7819 18.937 30.4486 19.4413 30.0413 19.9516L29.3007 20.8795L25.5623 20.8874C22.0724 20.8948 21.7932 20.8766 21.3641 20.6148C20.0959 19.8412 20.0276 18.0921 21.2347 17.3009C21.8429 16.9021 24.8899 16.4433 27.2199 16.3994L28.2426 16.3802V17.1627ZM33.2951 30.3339C35.3271 30.9372 37.3919 32.1971 38.7263 33.648C39.9291 34.9559 41.1276 37.1099 41.4271 38.5022L41.5259 38.9608L40.915 38.9587C38.658 38.9512 32.426 38.4464 29.7944 38.0579L28.5953 37.8809L29.2301 37.6847C30.0623 37.4275 31.2215 36.2833 31.4568 35.4868C31.8476 34.1636 31.5721 33.1086 30.5751 32.1113C29.1441 30.6798 27.342 30.6833 25.8966 32.1204C25.4518 32.5626 25.1336 33.0192 25.0708 33.3051L24.9688 33.7702L24.2839 33.0954L23.599 32.4205L24.2492 31.161L24.8994 29.9016L28.5814 29.9646C31.8342 30.0202 32.3834 30.0632 33.2951 30.3339ZM49.7561 30.0598C48.4865 30.3671 47.3122 31.329 46.729 32.5395C46.3182 33.392 46.1694 35.6056 46.4363 36.8917C46.9789 39.5064 49.2016 41.7136 51.7863 42.2038C52.2514 42.2922 55.9266 42.3479 61.2727 42.3479H70V41.2189V40.0899H68.8714H67.7428V38.3963V36.7028H68.8714H70V35.5737V34.4447H68.8714H67.7428V33.3157V32.1866H68.8714H70V31.0576V29.9286L60.0897 29.943C54.6391 29.951 49.9889 30.0035 49.7561 30.0598ZM19.3653 32.6C21.0284 33.1168 22.8416 34.5325 23.6946 35.9802C25.0866 38.3428 25.1994 41.0879 24.0064 43.5666C22.8145 46.0431 20.3734 47.7098 17.5942 47.9448C16.608 48.0282 14.7718 47.8006 14.6343 47.5779C14.6001 47.5227 14.9659 47.093 15.4471 46.623L16.322 45.7686L17.3581 45.6883C19.4098 45.5294 21.0738 44.3913 22.0023 42.5116C22.4996 41.5051 22.5292 41.3695 22.5292 40.0972C22.5292 38.8764 22.487 38.6601 22.0827 37.8064C21.4614 36.4943 20.6617 35.6772 19.3777 35.0424C18.3704 34.5443 18.2371 34.5153 16.9569 34.5153C15.6766 34.5153 15.5433 34.5443 14.5361 35.0424C12.6571 35.9713 11.5195 37.6359 11.3607 39.6885L11.2804 40.7249L10.4264 41.6002C9.95659 42.0816 9.52547 42.4466 9.4682 42.4111C9.41106 42.3759 9.28748 41.8914 9.19367 41.3346C8.51624 37.317 11.2368 33.312 15.264 32.3983C16.4301 32.1339 18.1345 32.2177 19.3653 32.6ZM51.9428 33.3157V34.4447H50.2499C48.4107 34.4447 48.4048 34.4416 48.7076 33.6424C49.069 32.6881 49.8837 32.2006 51.1316 32.1921L51.9428 32.1866V33.3157ZM56.4571 33.3157V34.4447H55.3285H54.1999V33.3157V32.1866H55.3285H56.4571V33.3157ZM60.9714 33.3157V34.4447H59.8428H58.7142V33.3157V32.1866H59.8428H60.9714V33.3157ZM65.4857 33.3157V34.4447H64.3571H63.2285V33.3157V32.1866H64.3571H65.4857V33.3157ZM29.0249 33.6621C29.7247 34.3621 29.2289 35.5737 28.2426 35.5737C27.9678 35.5737 27.6786 35.4457 27.4604 35.2273C27.242 35.0089 27.1141 34.7196 27.1141 34.4447C27.1141 34.1698 27.242 33.8805 27.4604 33.6621C27.6786 33.4437 27.9678 33.3157 28.2426 33.3157C28.5175 33.3157 28.8066 33.4437 29.0249 33.6621ZM34.0901 33.5142C32.6668 34.1344 32.3306 36.0272 33.4457 37.1428C35.0306 38.7284 37.6279 37.3082 37.2109 35.0839C36.9613 33.7536 35.3736 32.9549 34.0901 33.5142ZM18.1029 36.9202C18.4425 37.0399 18.9879 37.4004 19.3149 37.7211C20.6209 39.002 20.6829 40.942 19.4595 42.2527C19.1305 42.6052 18.9492 42.7285 19.0083 42.5596C19.2429 41.8893 19.2396 40.9452 19 40.2239C18.3979 38.4103 16.3725 37.432 14.4881 38.0446C14.3132 38.1015 14.4311 37.9261 14.7983 37.5831C15.7212 36.7213 16.8793 36.4891 18.1029 36.9202ZM51.9428 38.3222V39.9417L51.5891 39.8072C50.8823 39.5383 50.4508 39.2595 49.9189 38.7274C49.3871 38.1953 49.1083 37.7636 48.8396 37.0566L48.7052 36.7028H50.324H51.9428V38.3222ZM56.4571 38.3963V40.0899H55.3285H54.1999V38.3963V36.7028H55.3285H56.4571V38.3963ZM60.9714 38.3963V40.0899H59.8428H58.7142V38.3963V36.7028H59.8428H60.9714V38.3963ZM65.4857 38.3963V40.0899H64.3571H63.2285V38.3963V36.7028H64.3571H65.4857V38.3963ZM16.5445 40.5024C16.8341 40.7923 16.9569 41.0539 16.9569 41.3822C16.9569 41.8077 16.5321 42.2743 12.1934 46.6148C7.85461 50.9552 7.38823 51.3802 6.9629 51.3802C6.3213 51.3802 5.6711 50.7297 5.6711 50.0879C5.6711 49.6624 6.09587 49.1958 10.4345 44.8552C14.7734 40.5148 15.2397 40.0899 15.6651 40.0899C15.9932 40.0899 16.2548 40.2126 16.5445 40.5024ZM35.4802 43.6885C35.3102 43.8076 35.046 44.2979 34.8756 44.8099C34.4127 46.2013 33.7416 46.8641 32.7953 46.8641C32.576 46.8641 32.271 46.952 32.1176 47.0595C31.8805 47.2256 31.4364 47.2265 29.1589 47.0649C25.5341 46.8076 25.6085 46.8049 25.2032 47.2105L24.8569 47.5569V50.8546C24.8569 54.6873 24.951 55.151 25.9262 56.1266C26.3521 56.5528 26.748 56.7905 27.2797 56.9397C27.785 57.0814 30.8859 57.3188 36.749 57.6642C44.79 58.138 45.4937 58.1604 45.8106 57.9527C45.9997 57.8288 46.1949 57.5653 46.2447 57.3673C46.379 56.8319 44.0004 48.5649 43.6223 48.2533C43.4275 48.0926 42.9177 47.988 41.9927 47.9186C40.7102 47.8223 40.637 47.7992 40.4454 47.4284C40.2262 47.0045 39.9758 46.8641 39.4394 46.8641C38.5497 46.8641 37.8477 46.1655 37.4185 44.8528C37.0887 43.844 36.7484 43.477 36.1427 43.477C35.9445 43.477 35.6464 43.5722 35.4802 43.6885ZM36.4308 47.7884C36.5806 47.9692 36.5714 48.0481 36.3774 48.242C36.1585 48.4612 36.1269 48.4612 35.9079 48.242C35.714 48.0481 35.7048 47.9692 35.8546 47.7884C35.9545 47.6682 36.0841 47.5697 36.1427 47.5697C36.2012 47.5697 36.3309 47.6682 36.4308 47.7884ZM47.7549 48.3593C47.4016 48.7127 47.3921 48.7668 47.4795 49.9055C47.6691 52.3733 48.63 54.4177 50.4611 56.2496C51.7441 57.5331 52.9208 58.2739 54.5526 58.8252L55.6812 59.2064L62.8406 59.2532L70 59.2999V58.1626V57.0253H63.3922C57.2493 57.0253 56.7069 57.0054 55.6827 56.7435C54.2635 56.3804 53.0313 55.6845 52.0252 54.6778C51.1021 53.7545 50.6196 52.9881 50.1552 51.7082C49.5612 50.0712 48.3557 50.2511 59.9133 50.2511H70V49.1221V47.9931H59.0606H48.121L47.7549 48.3593ZM31.2052 49.472C34.5235 49.7068 34.3619 49.632 34.8739 51.171C35.1964 52.1404 35.5459 52.5092 36.1427 52.5092C36.7322 52.5092 37.0893 52.1393 37.403 51.2039C37.8581 49.8467 37.6812 49.9305 39.8478 50.0454C40.8982 50.1011 41.8333 50.1934 41.9257 50.2506C42.0999 50.3583 43.6634 55.6172 43.5538 55.7268C43.4996 55.7812 36.7249 55.4117 30.9935 55.0419C29.9073 54.9718 28.7756 54.9131 28.4787 54.9114C28.0725 54.9091 27.8366 54.8062 27.5264 54.4959L27.1141 54.0834V51.6733V49.2632L27.7136 49.2654C28.0434 49.2665 29.6146 49.3595 31.2052 49.472ZM25.7378 60.9071C26.8788 61.444 28.3328 61.7667 32.1221 62.3243C33.5187 62.5299 34.7408 62.7216 34.8378 62.7504C34.9699 62.7896 35.0141 63.4068 35.0141 65.2128C35.0141 67.5835 35.0085 67.6285 34.6678 67.9692L34.3216 68.3157H29.3712H24.4209L24.0747 67.9692L23.7283 67.6229V63.6481V59.6733L24.2212 60.0495C24.4924 60.2564 25.1749 60.6423 25.7378 60.9071Z" fill="white"/>
<path fill-rule="evenodd" clip-rule="evenodd" d="M7.14644 17.8557C6.956 18.0463 6.80011 18.3187 6.80011 18.4611C6.80011 18.8949 6.38183 20.367 6.08107 20.9921C5.39151 22.4247 4.01154 23.6382 2.49939 24.1416C1.52585 24.4658 1.15723 24.8148 1.15723 25.4125C1.15723 25.9942 1.52528 26.3643 2.33955 26.6011C4.60954 27.2613 6.34008 29.396 6.74834 32.0394C7.01214 33.7477 8.84523 33.7477 9.10904 32.0394C9.5173 29.396 11.2478 27.2613 13.5178 26.6011C14.3321 26.3643 14.7002 25.9942 14.7002 25.4125C14.7002 24.8148 14.3315 24.4658 13.358 24.1416C11.8458 23.6382 10.4659 22.4247 9.77631 20.9921C9.47554 20.367 9.05727 18.8949 9.05727 18.4611C9.05727 18.0459 8.42103 17.5093 7.92869 17.5093C7.65388 17.5093 7.36468 17.6373 7.14644 17.8557ZM8.39923 23.0825C8.61916 23.4308 9.21562 24.0976 9.72461 24.564L10.6499 25.4124L9.72461 26.2607C9.21562 26.7271 8.61916 27.394 8.39923 27.7423C8.1793 28.0906 7.96755 28.3755 7.92876 28.3755C7.88996 28.3755 7.67821 28.0906 7.45828 27.7423C7.23835 27.394 6.6419 26.7271 6.13291 26.2607L5.20762 25.4124L6.13291 24.564C6.6419 24.0976 7.23835 23.4308 7.45828 23.0825C7.67821 22.7342 7.88996 22.4492 7.92876 22.4492C7.96755 22.4492 8.1793 22.7342 8.39923 23.0825Z" fill="#DB3138"/>
</svg>
